<?xml version="1.0" standalone="no"?>
<!DOCTYPE svg PUBLIC "-//W3C//DTD SVG 20010904//EN"
 "http://www.w3.org/TR/2001/REC-SVG-20010904/DTD/svg10.dtd">
<svg version="1.0" xmlns="http://www.w3.org/2000/svg"
 width="512.000000pt" height="512.000000pt" viewBox="0 0 512.000000 512.000000"
 preserveAspectRatio="xMidYMid meet">
<metadata>
Created by potrace 1.14, written by Peter Selinger 2001-2017
</metadata>
<g transform="translate(0.000000,512.000000) scale(0.100000,-0.100000)"
fill="#000000" stroke="none">
<path d="M2335 5032 c-22 -8 -63 -14 -91 -14 -29 1 -67 -3 -85 -9 -19 -5 -59
-12 -89 -14 -109 -10 -154 -16 -163 -22 -17 -10 -89 -15 -152 -9 -22 2 -58 -3
-80 -11 -22 -8 -78 -16 -125 -18 -81 -3 -134 -9 -210 -21 -19 -4 -59 -8 -89
-10 -29 -2 -58 -7 -65 -12 -14 -11 -65 -22 -136 -28 -101 -9 -242 -50 -295
-85 -28 -18 -54 -40 -59 -48 -5 -9 -30 -36 -55 -60 -114 -108 -141 -137 -152
-161 -6 -14 -15 -33 -20 -42 -5 -10 -9 -24 -9 -32 0 -8 -15 -27 -34 -43 -40
-33 -54 -58 -62 -110 -3 -21 -7 -40 -9 -42 -2 -1 0 -13 5 -25 4 -12 3 -46 -2
-76 -5 -30 -11 -134 -13 -230 -3 -96 -6 -205 -8 -242 -4 -61 -1 -90 17 -168
18 -77 26 -144 20 -163 -4 -12 -7 -35 -6 -52 0 -16 -4 -35 -10 -42 -6 -7 -8
-13 -5 -13 3 0 2 -13 -3 -29 -5 -17 -4 -48 2 -73 11 -47 14 -249 5 -265 -8
-13 -20 -189 -19 -263 4 -201 14 -337 29 -390 3 -14 8 -110 10 -215 4 -247 5
-229 -10 -289 -7 -28 -10 -69 -7 -91 3 -22 -1 -62 -8 -90 -7 -31 -9 -59 -4
-75 5 -14 8 -56 6 -95 -2 -38 4 -101 13 -140 8 -38 17 -92 19 -120 2 -27 6
-72 8 -100 2 -27 9 -72 16 -100 6 -27 13 -76 15 -107 4 -61 21 -136 35 -153 4
-5 8 -27 8 -47 0 -62 36 -122 87 -147 25 -11 66 -31 91 -43 26 -12 56 -24 68
-25 11 -2 38 -10 58 -18 21 -8 38 -13 38 -10 0 2 12 0 27 -6 46 -18 64 -21
148 -25 212 -10 404 -22 490 -30 28 -2 73 -6 101 -8 28 -2 66 -7 84 -11 19 -4
53 -9 75 -10 22 -1 63 -5 90 -9 84 -11 147 -17 205 -20 30 -2 98 -9 150 -15
174 -21 229 -30 260 -46 32 -16 138 -37 205 -41 28 -2 50 -3 50 -4 0 -1 26 -4
121 -13 22 -2 46 -7 52 -11 7 -4 55 -9 107 -11 52 -2 99 -6 104 -10 5 -3 12
-1 16 5 4 6 11 8 16 4 22 -13 553 -21 709 -11 162 11 186 14 221 25 19 6 50
14 69 17 59 10 99 35 136 86 20 27 37 55 38 62 17 81 17 82 59 101 23 10 49
22 57 27 29 17 106 51 158 71 62 23 159 110 166 148 10 54 16 72 24 84 19 26
41 121 46 205 2 31 8 83 14 116 6 33 10 67 10 75 -2 48 15 282 23 319 6 28 6
47 -1 56 -5 6 -7 14 -4 17 14 14 20 503 9 693 -4 66 -6 129 -5 140 1 11 1 25
0 30 0 6 -2 37 -4 70 -3 33 -7 78 -10 100 -4 22 -9 69 -12 104 -2 35 -7 68
-11 73 -3 6 -7 25 -9 43 -1 18 -8 59 -13 92 -6 32 -13 96 -15 143 -2 47 -9 96
-14 110 -6 16 -6 35 1 53 7 21 6 41 -3 70 -7 23 -15 60 -17 82 -2 22 -9 54
-14 70 -5 17 -11 50 -14 75 -7 56 -13 101 -18 120 -6 23 -16 99 -21 155 -3 28
-8 61 -12 75 -3 14 -8 59 -10 100 -1 41 -3 75 -4 75 -1 0 -3 11 -6 25 -2 14
-8 52 -14 85 -5 33 -13 94 -16 135 -3 41 -8 93 -10 115 -2 22 -6 78 -8 125 -4
93 -12 134 -33 166 -8 12 -16 34 -19 50 -3 15 -9 35 -14 45 -6 10 -10 27 -10
38 0 30 -61 92 -95 98 -31 5 -60 6 -119 2 -21 -2 -48 7 -72 22 -21 13 -43 24
-49 25 -5 1 -29 7 -53 13 -23 7 -46 10 -51 7 -8 -6 -89 17 -119 33 -11 6 -42
13 -68 15 -27 3 -92 10 -144 16 -52 7 -196 13 -320 15 -215 4 -342 16 -365 35
-13 11 -65 14 -123 6 -24 -2 -55 -1 -68 4 -41 16 -156 10 -194 -10 -9 -5 -24
-4 -33 2 -10 5 -46 11 -80 14 -34 2 -89 5 -122 7 -37 2 -75 -2 -100 -11z"/>
</g>
</svg>
